<?xml version="1.0" encoding="UTF-8" standalone="no"?><svg xmlns="http://www.w3.org/2000/svg" xmlns:xlink="http://www.w3.org/1999/xlink" contentStyleType="text/css" height="1124px" preserveAspectRatio="none" style="width:1507px;height:1124px;background:#FFFFFF;" version="1.1" viewBox="0 0 1507 1124" width="1507px" zoomAndPan="magnify"><defs/><g><!--MD5=[ed6624c6556d5e7b1bd23032162d20b7]
class Client--><g id="elem_Client"><rect codeLine="3" fill="#F1F1F1" height="212.8828" id="Client" rx="2.5" ry="2.5" style="stroke:#181818;stroke-width:0.5;" width="237" x="644" y="7"/><ellipse cx="738.25" cy="23" fill="#ADD1B2" rx="11" ry="11" style="stroke:#181818;stroke-width:1.0;"/><path d="M740.7231,29.1431 Q740.1421,29.4419 739.5029,29.5913 Q738.8638,29.7407 738.1582,29.7407 Q735.6514,29.7407 734.3315,28.0889 Q733.0117,26.437 733.0117,23.3159 Q733.0117,20.1865 734.3315,18.5347 Q735.6514,16.8828 738.1582,16.8828 Q738.8638,16.8828 739.5112,17.0322 Q740.1587,17.1816 740.7231,17.4805 L740.7231,20.2031 Q740.0923,19.6221 739.4988,19.3523 Q738.9053,19.0825 738.2744,19.0825 Q736.9297,19.0825 736.2449,20.1492 Q735.5601,21.2158 735.5601,23.3159 Q735.5601,25.4077 736.2449,26.4744 Q736.9297,27.541 738.2744,27.541 Q738.9053,27.541 739.4988,27.2712 Q740.0923,27.0015 740.7231,26.4204 Z " fill="#000000"/><text fill="#000000" font-family="sans-serif" font-size="14" lengthAdjust="spacing" textLength="40" x="758.75" y="28.291">Client</text><line style="stroke:#181818;stroke-width:0.5;" x1="645" x2="880" y1="39" y2="39"/><rect fill="none" height="6" style="stroke:#C82930;stroke-width:1.0;" width="6" x="652" y="49.7441"/><text fill="#000000" font-family="sans-serif" font-size="14" lengthAdjust="spacing" textLength="136" x="664" y="56.5352">_clientName : String</text><rect fill="none" height="6" style="stroke:#C82930;stroke-width:1.0;" width="6" x="652" y="66.2324"/><text fill="#000000" font-family="sans-serif" font-size="14" lengthAdjust="spacing" textLength="88" x="664" y="73.0234">_clientID : int</text><rect fill="none" height="6" style="stroke:#C82930;stroke-width:1.0;" width="6" x="652" y="82.7207"/><text fill="#000000" font-family="sans-serif" font-size="14" lengthAdjust="spacing" textLength="155" x="664" y="89.5117">_clientTaxNumber : int</text><rect fill="none" height="6" style="stroke:#C82930;stroke-width:1.0;" width="6" x="652" y="99.209"/><text fill="#000000" font-family="sans-serif" font-size="14" lengthAdjust="spacing" textLength="122" x="664" y="106">_debtToPay : long</text><rect fill="none" height="6" style="stroke:#C82930;stroke-width:1.0;" width="6" x="652" y="115.6973"/><text fill="#000000" font-family="sans-serif" font-size="14" lengthAdjust="spacing" textLength="121" x="664" y="122.4883">_debtPayed : long</text><line style="stroke:#181818;stroke-width:1.0;" x1="645" x2="880" y1="129.4414" y2="129.4414"/><ellipse cx="655" cy="143.1855" fill="#84BE84" rx="3" ry="3" style="stroke:#038048;stroke-width:1.0;"/><text fill="#000000" font-family="sans-serif" font-size="14" lengthAdjust="spacing" textLength="144" x="664" y="146.9766">registerClient() : void</text><ellipse cx="655" cy="159.6738" fill="#84BE84" rx="3" ry="3" style="stroke:#038048;stroke-width:1.0;"/><text fill="#000000" font-family="sans-serif" font-size="14" lengthAdjust="spacing" textLength="189" x="664" y="163.4648">isFriendOfCleint() : boolean</text><ellipse cx="655" cy="176.1621" fill="#84BE84" rx="3" ry="3" style="stroke:#038048;stroke-width:1.0;"/><text fill="#000000" font-family="sans-serif" font-size="14" lengthAdjust="spacing" textLength="132" x="664" y="179.9531">payReceipts() : void</text><rect fill="#F24D5C" height="6" style="stroke:#C82930;stroke-width:1.0;" width="6" x="652" y="189.6504"/><text fill="#000000" font-family="sans-serif" font-size="14" lengthAdjust="spacing" textLength="198" x="664" y="196.4414">calculatePaymentDue() : long</text><rect fill="#F24D5C" height="6" style="stroke:#C82930;stroke-width:1.0;" width="6" x="652" y="206.1387"/><text fill="#000000" font-family="sans-serif" font-size="14" lengthAdjust="spacing" textLength="211" x="664" y="212.9297">calculatePaymentPayed() : long</text></g><!--MD5=[247d14a7513b6a4e342ed0a24fb2362b]
class Terminal--><g id="elem_Terminal"><rect codeLine="18" fill="#F1F1F1" height="171.418" id="Terminal" rx="2.5" ry="2.5" style="stroke:#181818;stroke-width:0.5;" width="216" x="420.5" y="519"/><ellipse cx="493.75" cy="535" fill="#A9DCDF" rx="11" ry="11" style="stroke:#181818;stroke-width:1.0;"/><path d="M493.6133,530.3481 L492.4595,535.4199 L494.7754,535.4199 Z M492.1191,528.1069 L495.1157,528.1069 L498.4609,540.5 L496.0122,540.5 L495.2485,537.437 L491.9697,537.437 L491.2227,540.5 L488.7739,540.5 Z " fill="#000000"/><text fill="#000000" font-family="sans-serif" font-size="14" font-style="italic" lengthAdjust="spacing" textLength="61" x="514.25" y="540.291">Terminal</text><line style="stroke:#181818;stroke-width:0.5;" x1="421.5" x2="635.5" y1="551" y2="551"/><rect fill="none" height="6" style="stroke:#C82930;stroke-width:1.0;" width="6" x="428.5" y="561.7441"/><text fill="#000000" font-family="sans-serif" font-size="14" lengthAdjust="spacing" textLength="108" x="440.5" y="568.5352">_terminalID : int</text><rect fill="none" height="6" style="stroke:#C82930;stroke-width:1.0;" width="6" x="428.5" y="578.2324"/><text fill="#000000" font-family="sans-serif" font-size="14" lengthAdjust="spacing" textLength="190" x="440.5" y="585.0234">_notificationStaus : boolean</text><line style="stroke:#181818;stroke-width:1.0;" x1="421.5" x2="635.5" y1="591.9766" y2="591.9766"/><ellipse cx="431.5" cy="605.7207" fill="#84BE84" rx="3" ry="3" style="stroke:#038048;stroke-width:1.0;"/><text fill="#000000" font-family="sans-serif" font-size="14" lengthAdjust="spacing" textLength="158" x="440.5" y="609.5117">registerTerminal() :  int</text><line style="stroke:#181818;stroke-width:1.0;" x1="421.5" x2="635.5" y1="616.4648" y2="616.4648"/><ellipse cx="431.5" cy="630.209" fill="#84BE84" rx="3" ry="3" style="stroke:#038048;stroke-width:1.0;"/><text fill="#000000" font-family="sans-serif" font-size="14" lengthAdjust="spacing" textLength="71" x="440.5" y="634">Terminal()</text><ellipse cx="431.5" cy="646.6973" fill="#84BE84" rx="3" ry="3" style="stroke:#038048;stroke-width:1.0;"/><text fill="#000000" font-family="sans-serif" font-size="14" lengthAdjust="spacing" textLength="149" x="440.5" y="650.4883">startAudioCall() : void</text><ellipse cx="431.5" cy="663.1855" fill="#84BE84" rx="3" ry="3" style="stroke:#038048;stroke-width:1.0;"/><text fill="#000000" font-family="sans-serif" font-size="14" lengthAdjust="spacing" textLength="146" x="440.5" y="666.9766">endAudioCall() : long</text><ellipse cx="431.5" cy="679.6738" fill="#84BE84" rx="3" ry="3" style="stroke:#038048;stroke-width:1.0;"/><text fill="#000000" font-family="sans-serif" font-size="14" lengthAdjust="spacing" textLength="145" x="440.5" y="683.4648">sendMessage() : long</text></g><!--MD5=[b02abd47336e5a04bcb9fc5fb92e53c7]
class BasicTerminal--><g id="elem_BasicTerminal"><rect codeLine="30" fill="#F1F1F1" height="64.4883" id="BasicTerminal" rx="2.5" ry="2.5" style="stroke:#181818;stroke-width:0.5;" width="131" x="332" y="792"/><ellipse cx="348.8" cy="808" fill="#ADD1B2" rx="11" ry="11" style="stroke:#181818;stroke-width:1.0;"/><path d="M351.2731,814.1431 Q350.6921,814.4419 350.0529,814.5913 Q349.4138,814.7407 348.7082,814.7407 Q346.2014,814.7407 344.8815,813.0889 Q343.5617,811.437 343.5617,808.3159 Q343.5617,805.1865 344.8815,803.5347 Q346.2014,801.8828 348.7082,801.8828 Q349.4138,801.8828 350.0612,802.0322 Q350.7087,802.1816 351.2731,802.4805 L351.2731,805.2031 Q350.6423,804.6221 350.0488,804.3523 Q349.4553,804.0825 348.8244,804.0825 Q347.4797,804.0825 346.7949,805.1492 Q346.1101,806.2158 346.1101,808.3159 Q346.1101,810.4077 346.7949,811.4744 Q347.4797,812.541 348.8244,812.541 Q349.4553,812.541 350.0488,812.2712 Q350.6423,812.0015 351.2731,811.4204 Z " fill="#000000"/><text fill="#000000" font-family="sans-serif" font-size="14" lengthAdjust="spacing" textLength="95" x="363.2" y="813.291">BasicTerminal</text><line style="stroke:#181818;stroke-width:0.5;" x1="333" x2="462" y1="824" y2="824"/><line style="stroke:#181818;stroke-width:0.5;" x1="333" x2="462" y1="832" y2="832"/><ellipse cx="343" cy="845.7441" fill="#84BE84" rx="3" ry="3" style="stroke:#038048;stroke-width:1.0;"/><text fill="#000000" font-family="sans-serif" font-size="14" lengthAdjust="spacing" textLength="105" x="352" y="849.5352">BasicTerminal()</text></g><!--MD5=[792afcbb949d6a2ef5f7a2da8b6510ea]
class FancyTerminal--><g id="elem_FancyTerminal"><rect codeLine="35" fill="#F1F1F1" height="97.4648" id="FancyTerminal" rx="2.5" ry="2.5" style="stroke:#181818;stroke-width:0.5;" width="173" x="498" y="775.5"/><ellipse cx="531.45" cy="791.5" fill="#ADD1B2" rx="11" ry="11" style="stroke:#181818;stroke-width:1.0;"/><path d="M533.9231,797.6431 Q533.3421,797.9419 532.7029,798.0913 Q532.0638,798.2407 531.3582,798.2407 Q528.8514,798.2407 527.5315,796.5889 Q526.2117,794.937 526.2117,791.8159 Q526.2117,788.6865 527.5315,787.0347 Q528.8514,785.3828 531.3582,785.3828 Q532.0638,785.3828 532.7112,785.5322 Q533.3587,785.6816 533.9231,785.9805 L533.9231,788.7031 Q533.2923,788.1221 532.6988,787.8523 Q532.1053,787.5825 531.4744,787.5825 Q530.1297,787.5825 529.4449,788.6492 Q528.7601,789.7158 528.7601,791.8159 Q528.7601,793.9077 529.4449,794.9744 Q530.1297,796.041 531.4744,796.041 Q532.1053,796.041 532.6988,795.7712 Q533.2923,795.5015 533.9231,794.9204 Z " fill="#000000"/><text fill="#000000" font-family="sans-serif" font-size="14" lengthAdjust="spacing" textLength="100" x="549.55" y="796.791">FancyTerminal</text><line style="stroke:#181818;stroke-width:0.5;" x1="499" x2="670" y1="807.5" y2="807.5"/><line style="stroke:#181818;stroke-width:0.5;" x1="499" x2="670" y1="815.5" y2="815.5"/><ellipse cx="509" cy="829.2441" fill="#84BE84" rx="3" ry="3" style="stroke:#038048;stroke-width:1.0;"/><text fill="#000000" font-family="sans-serif" font-size="14" lengthAdjust="spacing" textLength="110" x="518" y="833.0352">FancyTerminal()</text><ellipse cx="509" cy="845.7324" fill="#84BE84" rx="3" ry="3" style="stroke:#038048;stroke-width:1.0;"/><text fill="#000000" font-family="sans-serif" font-size="14" lengthAdjust="spacing" textLength="147" x="518" y="849.5234">startVideoCall() : void</text><ellipse cx="509" cy="862.2207" fill="#84BE84" rx="3" ry="3" style="stroke:#038048;stroke-width:1.0;"/><text fill="#000000" font-family="sans-serif" font-size="14" lengthAdjust="spacing" textLength="144" x="518" y="866.0117">endVideoCall() : long</text></g><!--MD5=[fbb3efceed2d2ea43508ad3a5c794535]
class ClientTypes--><g id="elem_ClientTypes"><rect codeLine="41" fill="#F1F1F1" height="97.4648" id="ClientTypes" rx="2.5" ry="2.5" style="stroke:#181818;stroke-width:0.5;" width="488" x="1012.5" y="65"/><ellipse cx="1212.25" cy="81" fill="#A9DCDF" rx="11" ry="11" style="stroke:#181818;stroke-width:1.0;"/><path d="M1212.1133,76.3481 L1210.9595,81.4199 L1213.2754,81.4199 Z M1210.6191,74.1069 L1213.6157,74.1069 L1216.9609,86.5 L1214.5122,86.5 L1213.7485,83.437 L1210.4697,83.437 L1209.7227,86.5 L1207.2739,86.5 Z " fill="#000000"/><text fill="#000000" font-family="sans-serif" font-size="14" font-style="italic" lengthAdjust="spacing" textLength="80" x="1232.75" y="86.291">ClientTypes</text><line style="stroke:#181818;stroke-width:0.5;" x1="1013.5" x2="1499.5" y1="97" y2="97"/><line style="stroke:#181818;stroke-width:0.5;" x1="1013.5" x2="1499.5" y1="105" y2="105"/><ellipse cx="1023.5" cy="118.7441" fill="#84BE84" rx="3" ry="3" style="stroke:#038048;stroke-width:1.0;"/><text fill="#000000" font-family="sans-serif" font-size="14" lengthAdjust="spacing" textLength="462" x="1032.5" y="122.5352">calclateValueToPay(communication : CommunicationType) : Receipt</text><ellipse cx="1023.5" cy="135.2324" fill="#84BE84" rx="3" ry="3" style="stroke:#038048;stroke-width:1.0;"/><text fill="#000000" font-family="sans-serif" font-size="14" lengthAdjust="spacing" textLength="200" x="1032.5" y="139.0234">upgradeClient() : ClientTypes</text><ellipse cx="1023.5" cy="151.7207" fill="#84BE84" rx="3" ry="3" style="stroke:#038048;stroke-width:1.0;"/><text fill="#000000" font-family="sans-serif" font-size="14" lengthAdjust="spacing" textLength="220" x="1032.5" y="155.5117">downgradeClient() : ClientTypes</text></g><!--MD5=[dee2a96cae7c44147c97b3368d833822]
class Normal--><g id="elem_Normal"><rect codeLine="47" fill="#F1F1F1" height="48" id="Normal" rx="2.5" ry="2.5" style="stroke:#181818;stroke-width:0.5;" width="82" x="1112.5" y="297"/><ellipse cx="1127.5" cy="313" fill="#ADD1B2" rx="11" ry="11" style="stroke:#181818;stroke-width:1.0;"/><path d="M1129.9731,319.1431 Q1129.3921,319.4419 1128.7529,319.5913 Q1128.1138,319.7407 1127.4082,319.7407 Q1124.9014,319.7407 1123.5815,318.0889 Q1122.2617,316.437 1122.2617,313.3159 Q1122.2617,310.1865 1123.5815,308.5347 Q1124.9014,306.8828 1127.4082,306.8828 Q1128.1138,306.8828 1128.7612,307.0322 Q1129.4087,307.1816 1129.9731,307.4805 L1129.9731,310.2031 Q1129.3423,309.6221 1128.7488,309.3523 Q1128.1553,309.0825 1127.5244,309.0825 Q1126.1797,309.0825 1125.4949,310.1492 Q1124.8101,311.2158 1124.8101,313.3159 Q1124.8101,315.4077 1125.4949,316.4744 Q1126.1797,317.541 1127.5244,317.541 Q1128.1553,317.541 1128.7488,317.2712 Q1129.3423,317.0015 1129.9731,316.4204 Z " fill="#000000"/><text fill="#000000" font-family="sans-serif" font-size="14" lengthAdjust="spacing" textLength="50" x="1141.5" y="318.291">Normal</text><line style="stroke:#181818;stroke-width:0.5;" x1="1113.5" x2="1193.5" y1="329" y2="329"/><line style="stroke:#181818;stroke-width:0.5;" x1="1113.5" x2="1193.5" y1="337" y2="337"/></g><!--MD5=[4662c7079ba573452e8edda72be35fba]
class Gold--><g id="elem_Gold"><rect codeLine="49" fill="#F1F1F1" height="48" id="Gold" rx="2.5" ry="2.5" style="stroke:#181818;stroke-width:0.5;" width="64" x="1229.5" y="297"/><ellipse cx="1244.5" cy="313" fill="#ADD1B2" rx="11" ry="11" style="stroke:#181818;stroke-width:1.0;"/><path d="M1246.9731,319.1431 Q1246.3921,319.4419 1245.7529,319.5913 Q1245.1138,319.7407 1244.4082,319.7407 Q1241.9014,319.7407 1240.5815,318.0889 Q1239.2617,316.437 1239.2617,313.3159 Q1239.2617,310.1865 1240.5815,308.5347 Q1241.9014,306.8828 1244.4082,306.8828 Q1245.1138,306.8828 1245.7612,307.0322 Q1246.4087,307.1816 1246.9731,307.4805 L1246.9731,310.2031 Q1246.3423,309.6221 1245.7488,309.3523 Q1245.1553,309.0825 1244.5244,309.0825 Q1243.1797,309.0825 1242.4949,310.1492 Q1241.8101,311.2158 1241.8101,313.3159 Q1241.8101,315.4077 1242.4949,316.4744 Q1243.1797,317.541 1244.5244,317.541 Q1245.1553,317.541 1245.7488,317.2712 Q1246.3423,317.0015 1246.9731,316.4204 Z " fill="#000000"/><text fill="#000000" font-family="sans-serif" font-size="14" lengthAdjust="spacing" textLength="32" x="1258.5" y="318.291">Gold</text><line style="stroke:#181818;stroke-width:0.5;" x1="1230.5" x2="1292.5" y1="329" y2="329"/><line style="stroke:#181818;stroke-width:0.5;" x1="1230.5" x2="1292.5" y1="337" y2="337"/></g><!--MD5=[dedf5121384291c9082f0d12c5743c97]
class Platinum--><g id="elem_Platinum"><rect codeLine="51" fill="#F1F1F1" height="48" id="Platinum" rx="2.5" ry="2.5" style="stroke:#181818;stroke-width:0.5;" width="92" x="1328.5" y="297"/><ellipse cx="1343.5" cy="313" fill="#ADD1B2" rx="11" ry="11" style="stroke:#181818;stroke-width:1.0;"/><path d="M1345.9731,319.1431 Q1345.3921,319.4419 1344.7529,319.5913 Q1344.1138,319.7407 1343.4082,319.7407 Q1340.9014,319.7407 1339.5815,318.0889 Q1338.2617,316.437 1338.2617,313.3159 Q1338.2617,310.1865 1339.5815,308.5347 Q1340.9014,306.8828 1343.4082,306.8828 Q1344.1138,306.8828 1344.7612,307.0322 Q1345.4087,307.1816 1345.9731,307.4805 L1345.9731,310.2031 Q1345.3423,309.6221 1344.7488,309.3523 Q1344.1553,309.0825 1343.5244,309.0825 Q1342.1797,309.0825 1341.4949,310.1492 Q1340.8101,311.2158 1340.8101,313.3159 Q1340.8101,315.4077 1341.4949,316.4744 Q1342.1797,317.541 1343.5244,317.541 Q1344.1553,317.541 1344.7488,317.2712 Q1345.3423,317.0015 1345.9731,316.4204 Z " fill="#000000"/><text fill="#000000" font-family="sans-serif" font-size="14" lengthAdjust="spacing" textLength="60" x="1357.5" y="318.291">Platinum</text><line style="stroke:#181818;stroke-width:0.5;" x1="1329.5" x2="1419.5" y1="329" y2="329"/><line style="stroke:#181818;stroke-width:0.5;" x1="1329.5" x2="1419.5" y1="337" y2="337"/></g><!--MD5=[f008992044199fdb8f0c1990db880e7b]
class TerminalStatus--><g id="elem_TerminalStatus"><rect codeLine="54" fill="#F1F1F1" height="113.9531" id="TerminalStatus" rx="2.5" ry="2.5" style="stroke:#181818;stroke-width:0.5;" width="135" x="706" y="767"/><ellipse cx="721" cy="783" fill="#EB937F" rx="11" ry="11" style="stroke:#181818;stroke-width:1.0;"/><path d="M724.6143,789.5 L716.8945,789.5 L716.8945,777.1069 L724.6143,777.1069 L724.6143,779.2651 L719.3433,779.2651 L719.3433,781.938 L724.1162,781.938 L724.1162,784.0962 L719.3433,784.0962 L719.3433,787.3418 L724.6143,787.3418 Z " fill="#000000"/><text fill="#000000" font-family="sans-serif" font-size="14" lengthAdjust="spacing" textLength="103" x="735" y="788.291">TerminalStatus</text><line style="stroke:#181818;stroke-width:0.5;" x1="707" x2="840" y1="799" y2="799"/><ellipse cx="717" cy="812.7441" fill="none" rx="3" ry="3" style="stroke:#038048;stroke-width:1.0;"/><text fill="#000000" font-family="sans-serif" font-size="14" lengthAdjust="spacing" textLength="55" x="726" y="816.5352">WATING</text><ellipse cx="717" cy="829.2324" fill="none" rx="3" ry="3" style="stroke:#038048;stroke-width:1.0;"/><text fill="#000000" font-family="sans-serif" font-size="14" lengthAdjust="spacing" textLength="46" x="726" y="833.0234">SILENT</text><ellipse cx="717" cy="845.7207" fill="none" rx="3" ry="3" style="stroke:#038048;stroke-width:1.0;"/><text fill="#000000" font-family="sans-serif" font-size="14" lengthAdjust="spacing" textLength="71" x="726" y="849.5117">OCCUPIED</text><ellipse cx="717" cy="862.209" fill="none" rx="3" ry="3" style="stroke:#038048;stroke-width:1.0;"/><text fill="#000000" font-family="sans-serif" font-size="14" lengthAdjust="spacing" textLength="27" x="726" y="866">OFF</text><line style="stroke:#181818;stroke-width:0.5;" x1="707" x2="840" y1="872.9531" y2="872.9531"/></g><!--MD5=[93ee1ecca66ee5f7dabe44355765ef2c]
class Notifications--><g id="elem_Notifications"><rect codeLine="61" fill="#F1F1F1" height="64.4883" id="Notifications" rx="2.5" ry="2.5" style="stroke:#181818;stroke-width:0.5;" width="176" x="971.5" y="1036.5"/><ellipse cx="1012.6" cy="1052.5" fill="#ADD1B2" rx="11" ry="11" style="stroke:#181818;stroke-width:1.0;"/><path d="M1015.0731,1058.6431 Q1014.4921,1058.9419 1013.8529,1059.0913 Q1013.2138,1059.2407 1012.5082,1059.2407 Q1010.0014,1059.2407 1008.6815,1057.5889 Q1007.3617,1055.937 1007.3617,1052.8159 Q1007.3617,1049.6865 1008.6815,1048.0347 Q1010.0014,1046.3828 1012.5082,1046.3828 Q1013.2138,1046.3828 1013.8612,1046.5322 Q1014.5087,1046.6816 1015.0731,1046.9805 L1015.0731,1049.7031 Q1014.4423,1049.1221 1013.8488,1048.8523 Q1013.2553,1048.5825 1012.6244,1048.5825 Q1011.2797,1048.5825 1010.5949,1049.6492 Q1009.9101,1050.7158 1009.9101,1052.8159 Q1009.9101,1054.9077 1010.5949,1055.9744 Q1011.2797,1057.041 1012.6244,1057.041 Q1013.2553,1057.041 1013.8488,1056.7712 Q1014.4423,1056.5015 1015.0731,1055.9204 Z " fill="#000000"/><text fill="#000000" font-family="sans-serif" font-size="14" lengthAdjust="spacing" textLength="86" x="1032.4" y="1057.791">Notifications</text><line style="stroke:#181818;stroke-width:0.5;" x1="972.5" x2="1146.5" y1="1068.5" y2="1068.5"/><line style="stroke:#181818;stroke-width:0.5;" x1="972.5" x2="1146.5" y1="1076.5" y2="1076.5"/><ellipse cx="982.5" cy="1090.2441" fill="#84BE84" rx="3" ry="3" style="stroke:#038048;stroke-width:1.0;"/><text fill="#000000" font-family="sans-serif" font-size="14" lengthAdjust="spacing" textLength="150" x="991.5" y="1094.0352">generateNotification()</text></g><!--MD5=[c120ff3a9c5951e1599ea2e4eb36b1ef]
class NetworkManager--><g id="elem_NetworkManager"><rect codeLine="65" fill="#F1F1F1" height="64.4883" id="NetworkManager" rx="2.5" ry="2.5" style="stroke:#181818;stroke-width:0.5;" width="166" x="269.5" y="81.5"/><ellipse cx="292.15" cy="97.5" fill="#ADD1B2" rx="11" ry="11" style="stroke:#181818;stroke-width:1.0;"/><path d="M294.6231,103.6431 Q294.0421,103.9419 293.4029,104.0913 Q292.7638,104.2407 292.0582,104.2407 Q289.5514,104.2407 288.2315,102.5889 Q286.9117,100.937 286.9117,97.8159 Q286.9117,94.6865 288.2315,93.0347 Q289.5514,91.3828 292.0582,91.3828 Q292.7638,91.3828 293.4112,91.5322 Q294.0587,91.6816 294.6231,91.9805 L294.6231,94.7031 Q293.9923,94.1221 293.3988,93.8523 Q292.8053,93.5825 292.1744,93.5825 Q290.8297,93.5825 290.1449,94.6492 Q289.4601,95.7158 289.4601,97.8159 Q289.4601,99.9077 290.1449,100.9744 Q290.8297,102.041 292.1744,102.041 Q292.8053,102.041 293.3988,101.7712 Q293.9923,101.5015 294.6231,100.9204 Z " fill="#000000"/><text fill="#000000" font-family="sans-serif" font-size="14" lengthAdjust="spacing" textLength="117" x="307.85" y="102.791">NetworkManager</text><line style="stroke:#181818;stroke-width:0.5;" x1="270.5" x2="434.5" y1="113.5" y2="113.5"/><rect fill="none" height="6" style="stroke:#C82930;stroke-width:1.0;" width="6" x="277.5" y="124.2441"/><text fill="#000000" font-family="sans-serif" font-size="14" lengthAdjust="spacing" textLength="140" x="289.5" y="131.0352">_networkFile : String</text><line style="stroke:#181818;stroke-width:0.5;" x1="270.5" x2="434.5" y1="137.9883" y2="137.9883"/></g><!--MD5=[ec81f511f4d20a18ef555a8be4cd58b8]
class Network--><g id="elem_Network"><rect codeLine="69" fill="#F1F1F1" height="80.9766" id="Network" rx="2.5" ry="2.5" style="stroke:#181818;stroke-width:0.5;" width="227" x="7" y="73"/><ellipse cx="87.75" cy="89" fill="#ADD1B2" rx="11" ry="11" style="stroke:#181818;stroke-width:1.0;"/><path d="M90.2231,95.1431 Q89.6421,95.4419 89.0029,95.5913 Q88.3638,95.7407 87.6582,95.7407 Q85.1514,95.7407 83.8315,94.0889 Q82.5117,92.437 82.5117,89.3159 Q82.5117,86.1865 83.8315,84.5347 Q85.1514,82.8828 87.6582,82.8828 Q88.3638,82.8828 89.0112,83.0322 Q89.6587,83.1816 90.2231,83.4805 L90.2231,86.2031 Q89.5923,85.6221 88.9988,85.3523 Q88.4053,85.0825 87.7744,85.0825 Q86.4297,85.0825 85.7449,86.1492 Q85.0601,87.2158 85.0601,89.3159 Q85.0601,91.4077 85.7449,92.4744 Q86.4297,93.541 87.7744,93.541 Q88.4053,93.541 88.9988,93.2712 Q89.5923,93.0015 90.2231,92.4204 Z " fill="#000000"/><text fill="#000000" font-family="sans-serif" font-size="14" lengthAdjust="spacing" textLength="57" x="108.25" y="94.291">Network</text><line style="stroke:#181818;stroke-width:0.5;" x1="8" x2="233" y1="105" y2="105"/><line style="stroke:#181818;stroke-width:0.5;" x1="8" x2="233" y1="113" y2="113"/><ellipse cx="18" cy="126.7441" fill="#84BE84" rx="3" ry="3" style="stroke:#038048;stroke-width:1.0;"/><text fill="#000000" font-family="sans-serif" font-size="14" lengthAdjust="spacing" textLength="159" x="27" y="130.5352">getAllClients() : Client[]</text><ellipse cx="18" cy="143.2324" fill="#84BE84" rx="3" ry="3" style="stroke:#038048;stroke-width:1.0;"/><text fill="#000000" font-family="sans-serif" font-size="14" lengthAdjust="spacing" textLength="201" x="27" y="147.0234">getAllTerminals() : Terminal[]</text></g><!--MD5=[34b75dd4d6d4601c280a5b76e9c1a953]
class Receipt--><g id="elem_Receipt"><rect codeLine="74" fill="#F1F1F1" height="113.9531" id="Receipt" rx="2.5" ry="2.5" style="stroke:#181818;stroke-width:0.5;" width="155" x="838" y="375"/><ellipse cx="886.25" cy="391" fill="#ADD1B2" rx="11" ry="11" style="stroke:#181818;stroke-width:1.0;"/><path d="M888.7231,397.1431 Q888.1421,397.4419 887.5029,397.5913 Q886.8638,397.7407 886.1582,397.7407 Q883.6514,397.7407 882.3315,396.0889 Q881.0117,394.437 881.0117,391.3159 Q881.0117,388.1865 882.3315,386.5347 Q883.6514,384.8828 886.1582,384.8828 Q886.8638,384.8828 887.5112,385.0322 Q888.1587,385.1816 888.7231,385.4805 L888.7231,388.2031 Q888.0923,387.6221 887.4988,387.3523 Q886.9053,387.0825 886.2744,387.0825 Q884.9297,387.0825 884.2449,388.1492 Q883.5601,389.2158 883.5601,391.3159 Q883.5601,393.4077 884.2449,394.4744 Q884.9297,395.541 886.2744,395.541 Q886.9053,395.541 887.4988,395.2712 Q888.0923,395.0015 888.7231,394.4204 Z " fill="#000000"/><text fill="#000000" font-family="sans-serif" font-size="14" lengthAdjust="spacing" textLength="50" x="906.75" y="396.291">Receipt</text><line style="stroke:#181818;stroke-width:0.5;" x1="839" x2="992" y1="407" y2="407"/><rect fill="none" height="6" style="stroke:#C82930;stroke-width:1.0;" width="6" x="846" y="417.7441"/><text fill="#000000" font-family="sans-serif" font-size="14" lengthAdjust="spacing" textLength="108" x="858" y="424.5352">_terminalID : int</text><rect fill="none" height="6" style="stroke:#C82930;stroke-width:1.0;" width="6" x="846" y="434.2324"/><text fill="#000000" font-family="sans-serif" font-size="14" lengthAdjust="spacing" textLength="114" x="858" y="441.0234">_valueToPay : int</text><rect fill="none" height="6" style="stroke:#C82930;stroke-width:1.0;" width="6" x="846" y="450.7207"/><text fill="#000000" font-family="sans-serif" font-size="14" lengthAdjust="spacing" textLength="116" x="858" y="457.5117">_payed : boolean</text><line style="stroke:#181818;stroke-width:0.5;" x1="839" x2="992" y1="464.4648" y2="464.4648"/><ellipse cx="849" cy="478.209" fill="#84BE84" rx="3" ry="3" style="stroke:#038048;stroke-width:1.0;"/><text fill="#000000" font-family="sans-serif" font-size="14" lengthAdjust="spacing" textLength="129" x="858" y="482">setToPayed() : void</text></g><!--MD5=[fca3bd940cfa43daf701fb146735ea0c]
class Communications--><g id="elem_Communications"><rect codeLine="81" fill="#F1F1F1" height="64.4883" id="Communications" rx="2.5" ry="2.5" style="stroke:#181818;stroke-width:0.5;" width="148" x="148.5" y="792"/><ellipse cx="163.5" cy="808" fill="#ADD1B2" rx="11" ry="11" style="stroke:#181818;stroke-width:1.0;"/><path d="M165.9731,814.1431 Q165.3921,814.4419 164.7529,814.5913 Q164.1138,814.7407 163.4082,814.7407 Q160.9014,814.7407 159.5815,813.0889 Q158.2617,811.437 158.2617,808.3159 Q158.2617,805.1865 159.5815,803.5347 Q160.9014,801.8828 163.4082,801.8828 Q164.1138,801.8828 164.7612,802.0322 Q165.4087,802.1816 165.9731,802.4805 L165.9731,805.2031 Q165.3423,804.6221 164.7488,804.3523 Q164.1553,804.0825 163.5244,804.0825 Q162.1797,804.0825 161.4949,805.1492 Q160.8101,806.2158 160.8101,808.3159 Q160.8101,810.4077 161.4949,811.4744 Q162.1797,812.541 163.5244,812.541 Q164.1553,812.541 164.7488,812.2712 Q165.3423,812.0015 165.9731,811.4204 Z " fill="#000000"/><text fill="#000000" font-family="sans-serif" font-size="14" lengthAdjust="spacing" textLength="116" x="177.5" y="813.291">Communications</text><line style="stroke:#181818;stroke-width:0.5;" x1="149.5" x2="295.5" y1="824" y2="824"/><line style="stroke:#181818;stroke-width:0.5;" x1="149.5" x2="295.5" y1="832" y2="832"/><ellipse cx="159.5" cy="845.7441" fill="#84BE84" rx="3" ry="3" style="stroke:#038048;stroke-width:1.0;"/><text fill="#000000" font-family="sans-serif" font-size="14" lengthAdjust="spacing" textLength="111" x="168.5" y="849.5352">calclateReceipt()</text></g><!--MD5=[8be1b8710176a693b32e6a2f85736b40]
class CommunicationType--><g id="elem_CommunicationType"><rect codeLine="85" fill="#F1F1F1" height="97.4648" id="CommunicationType" rx="2.5" ry="2.5" style="stroke:#181818;stroke-width:0.5;" width="174" x="762.5" y="1020"/><ellipse cx="777.5" cy="1036" fill="#EB937F" rx="11" ry="11" style="stroke:#181818;stroke-width:1.0;"/><path d="M781.1143,1042.5 L773.3945,1042.5 L773.3945,1030.1069 L781.1143,1030.1069 L781.1143,1032.2651 L775.8433,1032.2651 L775.8433,1034.938 L780.6162,1034.938 L780.6162,1037.0962 L775.8433,1037.0962 L775.8433,1040.3418 L781.1143,1040.3418 Z " fill="#000000"/><text fill="#000000" font-family="sans-serif" font-size="14" lengthAdjust="spacing" textLength="142" x="791.5" y="1041.291">CommunicationType</text><line style="stroke:#181818;stroke-width:0.5;" x1="763.5" x2="935.5" y1="1052" y2="1052"/><ellipse cx="773.5" cy="1065.7441" fill="none" rx="3" ry="3" style="stroke:#038048;stroke-width:1.0;"/><text fill="#000000" font-family="sans-serif" font-size="14" lengthAdjust="spacing" textLength="59" x="782.5" y="1069.5352">Message</text><ellipse cx="773.5" cy="1082.2324" fill="none" rx="3" ry="3" style="stroke:#038048;stroke-width:1.0;"/><text fill="#000000" font-family="sans-serif" font-size="14" lengthAdjust="spacing" textLength="67" x="782.5" y="1086.0234">AudioCall</text><ellipse cx="773.5" cy="1098.7207" fill="none" rx="3" ry="3" style="stroke:#038048;stroke-width:1.0;"/><text fill="#000000" font-family="sans-serif" font-size="14" lengthAdjust="spacing" textLength="65" x="782.5" y="1102.5117">VideoCall</text><line style="stroke:#181818;stroke-width:0.5;" x1="763.5" x2="935.5" y1="1109.4648" y2="1109.4648"/></g><!--MD5=[ac21ff652ecbf6bd608dca47883cda0e]
link Client to Terminal--><g id="link_Client_Terminal"><path codeLine="91" d="M643.95,192.29 C609.66,220.96 575.98,256.49 555.5,297 C521.63,364 516.81,449.82 519.35,513.6 " fill="none" id="Client-to-Terminal" style="stroke:#181818;stroke-width:1.0;"/><polygon fill="#181818" points="519.59,518.92,523.201,509.757,519.3759,513.9246,515.2083,510.0995,519.59,518.92" style="stroke:#181818;stroke-width:1.0;"/><rect fill="none" height="6" style="stroke:#C82930;stroke-width:1.0;" width="6" x="558.5" y="318.6553"/><text fill="#000000" font-family="sans-serif" font-size="13" lengthAdjust="spacing" textLength="144" x="568.5" y="326.0684">_accociatedTerminals[]</text></g><!--MD5=[fadfd591b61d9861588adb289d5b84e6]
link Terminal to Client--><g id="link_Terminal_Client"><path codeLine="100" d="M605.17,518.86 C644.5,471.04 689.84,408.29 717.5,345 C733.83,307.64 744.27,264.29 750.93,225.33 " fill="none" id="Terminal-to-Client" style="stroke:#181818;stroke-width:1.0;"/><polygon fill="#181818" points="751.8,220.11,746.3633,228.3223,750.9711,225.0408,754.2525,229.6486,751.8,220.11" style="stroke:#181818;stroke-width:1.0;"/><rect fill="none" height="6" style="stroke:#C82930;stroke-width:1.0;" width="6" x="737.5" y="318.6553"/><text fill="#000000" font-family="sans-serif" font-size="13" lengthAdjust="spacing" textLength="96" x="747.5" y="326.0684">_terminalClient</text></g><!--MD5=[e8c698408801557243633a122ca19d82]
link Client to ClientTypes--><g id="link_Client_ClientTypes"><path codeLine="92" d="M881.14,113.5 C919.35,113.5 963.23,113.5 1007.21,113.5 " fill="none" id="Client-to-ClientTypes" style="stroke:#181818;stroke-width:1.0;"/><polygon fill="#181818" points="1012.29,113.5,1003.29,109.5,1007.29,113.5,1003.29,117.5,1012.29,113.5" style="stroke:#181818;stroke-width:1.0;"/><rect fill="none" height="6" style="stroke:#C82930;stroke-width:1.0;" width="6" x="906.75" y="99.6553"/><text fill="#000000" font-family="sans-serif" font-size="13" lengthAdjust="spacing" textLength="72" x="916.75" y="107.0684">_clientType</text></g><!--MD5=[defb6f3de43ffd2f570f8edf7475c07c]
link Client to Receipt--><g id="link_Client_Receipt"><path codeLine="93" d="M833.52,220.1 C848.3,244.7 862.88,271.25 874.5,297 C884.91,320.09 893.63,346.55 900.32,369.83 " fill="none" id="Client-to-Receipt" style="stroke:#181818;stroke-width:1.0;"/><polygon fill="#181818" points="901.72,374.75,903.1013,364.9985,900.3502,369.9413,895.4073,367.1902,901.72,374.75" style="stroke:#181818;stroke-width:1.0;"/><rect fill="none" height="6" style="stroke:#C82930;stroke-width:1.0;" width="6" x="861.5" y="256.1553"/><text fill="#000000" font-family="sans-serif" font-size="13" lengthAdjust="spacing" textLength="95" x="871.5" y="263.5684">_clientRecites[]</text></g><!--MD5=[9b08c7f1a512aecfe3f6c636113e93d1]
link Client to Notifications--><g id="link_Client_Notifications"><path codeLine="94" d="M886.02,173.6 C967.59,216.78 1059.5,275.35 1059.5,320 C1059.5,320 1059.5,320 1059.5,951.5 C1059.5,978.27 1059.5,1008.52 1059.5,1031.42 " fill="none" id="Client-Notifications" style="stroke:#181818;stroke-width:1.0;"/><polygon fill="#181818" points="1059.5,1036.48,1063.5,1027.48,1059.5,1031.48,1055.5,1027.48,1059.5,1036.48" style="stroke:#181818;stroke-width:1.0;"/><polygon fill="#181818" points="881.16,171.04,887.2644,178.769,885.5855,173.367,890.9875,171.6881,881.16,171.04" style="stroke:#181818;stroke-width:1.0;"/><rect fill="none" height="6" style="stroke:#C82930;stroke-width:1.0;" width="6" x="1062.5" y="726.1553"/><text fill="#000000" font-family="sans-serif" font-size="13" lengthAdjust="spacing" textLength="117" x="1072.5" y="733.5684">_logNotifications[]</text></g><!--MD5=[d914be82c6ae4960ced03a02176125a0]
reverse link ClientTypes to Normal--><g id="link_ClientTypes_Normal"><path codeLine="96" d="M1223.61,180.13 C1203.54,220.17 1179.11,268.9 1165.03,297 " fill="none" id="ClientTypes-backto-Normal" style="stroke:#181818;stroke-width:1.0;"/><polygon fill="none" points="1217.39,176.91,1232.61,162.16,1229.91,183.18,1217.39,176.91" style="stroke:#181818;stroke-width:1.0;"/></g><!--MD5=[10be24cd042ab66885a625ac84054de7]
reverse link ClientTypes to Gold--><g id="link_ClientTypes_Gold"><path codeLine="97" d="M1258.15,182.31 C1259.11,221.93 1260.27,269.41 1260.94,297 " fill="none" id="ClientTypes-backto-Gold" style="stroke:#181818;stroke-width:1.0;"/><polygon fill="none" points="1251.15,182.33,1257.66,162.16,1265.14,181.99,1251.15,182.33" style="stroke:#181818;stroke-width:1.0;"/></g><!--MD5=[c4feb873e2fb5d36cbcf84c3e00ef200]
reverse link ClientTypes to Platinum--><g id="link_ClientTypes_Platinum"><path codeLine="98" d="M1293.87,179.59 C1316.93,219.73 1345.09,268.78 1361.29,297 " fill="none" id="ClientTypes-backto-Platinum" style="stroke:#181818;stroke-width:1.0;"/><polygon fill="none" points="1287.76,182.99,1283.87,162.16,1299.9,176.02,1287.76,182.99" style="stroke:#181818;stroke-width:1.0;"/></g><!--MD5=[7c7b5c980d2f34cdead1403e1bade8a7]
link Terminal to Terminal--><g id="link_Terminal_Terminal"><path codeLine="101" d="M636.69,582.4 C657.1,585.09 671.5,592.45 671.5,604.5 C671.5,615.51 659.47,622.61 641.81,625.8 " fill="none" id="Terminal-to-Terminal" style="stroke:#181818;stroke-width:1.0;"/><polygon fill="#181818" points="636.69,626.6,646.1992,629.1643,641.6302,625.829,644.9655,621.26,636.69,626.6" style="stroke:#181818;stroke-width:1.0;"/><rect fill="none" height="6" style="stroke:#C82930;stroke-width:1.0;" width="6" x="679.5" y="602.1553"/><text fill="#000000" font-family="sans-serif" font-size="13" lengthAdjust="spacing" textLength="128" x="689.5" y="609.5684">_accociatedFriends[]</text><text fill="#000000" font-family="sans-serif" font-size="13" lengthAdjust="spacing" textLength="22" x="644.3256" y="578.0687">1..*</text></g><!--MD5=[cad90bbf7294a633beabfc9264683b27]
link Terminal to TerminalStatus--><g id="link_Terminal_TerminalStatus"><path codeLine="102" d="M623.92,690.21 C651.35,714.56 680.67,740.59 706.03,763.1 " fill="none" id="Terminal-to-TerminalStatus" style="stroke:#181818;stroke-width:1.0;"/><polygon fill="#181818" points="710.06,766.68,705.9738,757.7188,706.3167,763.3653,700.6702,763.7082,710.06,766.68" style="stroke:#181818;stroke-width:1.0;"/><rect fill="none" height="6" style="stroke:#C82930;stroke-width:1.0;" width="6" x="676.5" y="726.1553"/><text fill="#000000" font-family="sans-serif" font-size="13" lengthAdjust="spacing" textLength="98" x="686.5" y="733.5684">_terminalStatus</text><text fill="#000000" font-family="sans-serif" font-size="13" lengthAdjust="spacing" textLength="8" x="624.0621" y="711.0751">1</text></g><!--MD5=[1a0d4e9efaee35a162417f38e161fdad]
link Terminal to Communications--><g id="link_Terminal_Communications"><path codeLine="103" d="M420.33,644.73 C378.18,663.37 331.27,688.53 294.5,720 C272.53,738.81 254,765.76 241.25,787.37 " fill="none" id="Terminal-to-Communications" style="stroke:#181818;stroke-width:1.0;"/><polygon fill="#181818" points="238.61,791.9,246.5976,786.1382,241.1276,787.5801,239.6857,782.1101,238.61,791.9" style="stroke:#181818;stroke-width:1.0;"/><rect fill="none" height="6" style="stroke:#C82930;stroke-width:1.0;" width="6" x="297.5" y="726.1553"/><text fill="#000000" font-family="sans-serif" font-size="13" lengthAdjust="spacing" textLength="135" x="307.5" y="733.5684">logCommunications[]</text></g><!--MD5=[9a3179792e68c99ea2c2a485bb39d153]
reverse link Terminal to BasicTerminal--><g id="link_Terminal_BasicTerminal"><path codeLine="105" d="M466.99,707.62 C448.52,738.3 429.61,769.68 416.2,791.96 " fill="none" id="Terminal-backto-BasicTerminal" style="stroke:#181818;stroke-width:1.0;"/><polygon fill="none" points="461.16,703.73,477.48,690.21,473.15,710.96,461.16,703.73" style="stroke:#181818;stroke-width:1.0;"/></g><!--MD5=[433ac0db3f5a66e527ce5b953b541142]
reverse link Terminal to FancyTerminal--><g id="link_Terminal_FancyTerminal"><path codeLine="106" d="M555.34,709.75 C561.24,732.68 567.22,755.87 572.21,775.25 " fill="none" id="Terminal-backto-FancyTerminal" style="stroke:#181818;stroke-width:1.0;"/><polygon fill="none" points="548.52,711.33,550.31,690.21,562.08,707.84,548.52,711.33" style="stroke:#181818;stroke-width:1.0;"/></g><!--MD5=[933871a48dae342ac20ce9c4d69a0064]
link Receipt to CommunicationType--><g id="link_Receipt_CommunicationType"><path codeLine="108" d="M914.28,489.18 C913.11,548.44 911.5,644.54 911.5,727.5 C911.5,727.5 911.5,727.5 911.5,951.5 C911.5,974.11 902.23,996.58 890.85,1015.64 " fill="none" id="Receipt-to-CommunicationType" style="stroke:#181818;stroke-width:1.0;"/><polygon fill="#181818" points="888.24,1019.91,896.3583,1014.3339,890.8565,1015.6493,889.5411,1010.1475,888.24,1019.91" style="stroke:#181818;stroke-width:1.0;"/><rect fill="none" height="6" style="stroke:#C82930;stroke-width:1.0;" width="6" x="914.5" y="821.6553"/><text fill="#000000" font-family="sans-serif" font-size="13" lengthAdjust="spacing" textLength="81" x="924.5" y="829.0684">typeOfRecipt</text></g><!--MD5=[e1fb3a8022481533e2a31670bfa173b2]
reverse link CommunicationType to Notifications--><g id="link_CommunicationType_Notifications"><path codeLine="110" d="M941.98,1068.5 C951.77,1068.5 961.56,1068.5 971.35,1068.5 " fill="none" id="CommunicationType-backto-Notifications" style="stroke:#181818;stroke-width:1.0;"/><polygon fill="#181818" points="936.86,1068.5,945.86,1072.5,941.86,1068.5,945.86,1064.5,936.86,1068.5" style="stroke:#181818;stroke-width:1.0;"/></g><!--MD5=[39a2d660d93dc8dc1374e6dda500db2e]
link Communications to CommunicationType--><g id="link_Communications_CommunicationType"><path codeLine="111" d="M269.19,856.04 C283.39,864.76 299.28,873.82 314.5,881 C464.23,951.69 648.36,1010.05 756.92,1041.73 " fill="none" id="Communications-to-CommunicationType" style="stroke:#181818;stroke-width:1.0;"/><polygon fill="#181818" points="762.03,1043.22,754.51,1036.86,757.23,1041.82,752.27,1044.54,762.03,1043.22" style="stroke:#181818;stroke-width:1.0;"/><rect fill="none" height="6" style="stroke:#C82930;stroke-width:1.0;" width="6" x="505.5" y="948.1553"/><text fill="#000000" font-family="sans-serif" font-size="13" lengthAdjust="spacing" textLength="135" x="515.5" y="955.5684">_communicationType</text><text fill="#000000" font-family="sans-serif" font-size="13" lengthAdjust="spacing" textLength="8" x="270.5284" y="877.2383">1</text></g><!--MD5=[4f87f73c207474d20c7166cdea7400e1]
link Network to NetworkManager--><g id="link_Network_NetworkManager"><path codeLine="113" d="M246.23,113.5 C246.23,113.5 253.34,113.5 256.32,113.5 " fill="none" id="Network-NetworkManager" style="stroke:#181818;stroke-width:1.0;"/><polygon fill="#181818" points="269.34,113.5,260.34,109.5,264.34,113.5,260.34,117.5,269.34,113.5" style="stroke:#181818;stroke-width:1.0;"/><line style="stroke:#181818;stroke-width:1.0;" x1="264.34" x2="256.34" y1="113.5" y2="113.5"/><polygon fill="#181818" points="234.23,113.5,240.23,117.5,246.23,113.5,240.23,109.5,234.23,113.5" style="stroke:#181818;stroke-width:1.0;"/></g><!--MD5=[e25e4cf3bafc66ea312d9d2643aa5a20]
link NetworkManager to Terminal--><g id="link_NetworkManager_Terminal"><path codeLine="114" d="M352.3978,157.5584 C352.3978,157.5584 358.81,282.51 379.5,345 C398.46,402.25 430.98,460.89 460.82,507.81 " fill="none" id="NetworkManager-Terminal" style="stroke:#181818;stroke-width:1.0;"/><polygon fill="#181818" points="467.94,518.86,466.4328,509.1272,465.234,514.6555,459.7056,513.4568,467.94,518.86" style="stroke:#181818;stroke-width:1.0;"/><line style="stroke:#181818;stroke-width:1.0;" x1="465.234" x2="460.9" y1="514.6555" y2="507.935"/><polygon fill="#181818" points="352.2,145.56,348.2994,151.6251,352.3978,157.5584,356.2983,151.4933,352.2,145.56" style="stroke:#181818;stroke-width:1.0;"/><rect fill="none" height="6" style="stroke:#C82930;stroke-width:1.0;" width="6" x="382.5" y="318.6553"/><text fill="#000000" font-family="sans-serif" font-size="13" lengthAdjust="spacing" textLength="92" x="392.5" y="326.0684">_allTerminals[]</text></g><!--MD5=[ad80711649b23846a8532643540aaf24]
link NetworkManager to Client--><g id="link_NetworkManager_Client"><path codeLine="115" d="M435.96,113.5 C494.27,113.5 573.1,113.5 638.7,113.5 " fill="none" id="NetworkManager-to-Client" style="stroke:#181818;stroke-width:1.0;"/><polygon fill="#181818" points="643.8,113.5,634.8,109.5,638.8,113.5,634.8,117.5,643.8,113.5" style="stroke:#181818;stroke-width:1.0;"/><rect fill="none" height="6" style="stroke:#C82930;stroke-width:1.0;" width="6" x="498.75" y="99.6553"/><text fill="#000000" font-family="sans-serif" font-size="13" lengthAdjust="spacing" textLength="74" x="508.75" y="107.0684">_allClients[]</text><text fill="#000000" font-family="sans-serif" font-size="13" lengthAdjust="spacing" textLength="6" x="630.0036" y="110.6016">*</text></g><!--MD5=[0c7d9eb54c28cc4bb6327eea43288ec7]
link NetworkManager to Communications--><g id="link_NetworkManager_Communications"><path codeLine="116" d="M346.75,145.86 C325.25,263.02 249.77,674.37 228.26,791.6 " fill="none" id="NetworkManager-Communications" style="stroke:#181818;stroke-width:1.0;"/></g><!--MD5=[2b462dac32514a6e0cb446ca5143bb6a]
@startuml name


class Client{
    - _clientName : String
    - _clientID : int
    - _clientTaxNumber : int
    - _debtToPay : long
    - _debtPayed : long
    - -
    + registerClient() : void
    + isFriendOfCleint() : boolean
    + payReceipts() : void
    - calculatePaymentDue() : long
    - calculatePaymentPayed() : long
}


abstract class Terminal{
    - _terminalID : int
    - _notificationStaus : boolean
    - -
    + registerTerminal() :  int
    - -
    + Terminal()
    + startAudioCall() : void
    + endAudioCall() : long
    + sendMessage() : long 
}

class BasicTerminal{
    + BasicTerminal()

}

class FancyTerminal{
    + FancyTerminal()
    + startVideoCall() : void
    + endVideoCall() : long
}

abstract class ClientTypes{
    + calclateValueToPay(communication : CommunicationType) : Receipt
    + upgradeClient() : ClientTypes
    + downgradeClient() : ClientTypes
}

class Normal{
}
class Gold{
}
class Platinum{
}

enum TerminalStatus{
    + WATING
    + SILENT
    + OCCUPIED
    + OFF
}

class Notifications{
    + generateNotification()
}

class NetworkManager{
    - _networkFile : String
}

class Network{
    + getAllClients() : Client[]
    + getAllTerminals() : Terminal[]
}

class Receipt{
    - _terminalID : int
    - _valueToPay : int 
    - _payed : boolean
    + setToPayed() : void
}

class Communications{
    + calclateReceipt()
}

enum CommunicationType{
    + Message
    + AudioCall
    + VideoCall
}

Client - - ->  Terminal : -_accociatedTerminals[]
Client -right> ClientTypes : -_clientType
Client - -> Receipt : -_clientRecites[]
Client <- -> Notifications : - _logNotifications[]

Normal - -up|> ClientTypes
Gold - -up|> ClientTypes
Platinum - -up|> ClientTypes

Terminal - - -> Client : - _terminalClient
Terminal "1..*" - - ->  Terminal : - _accociatedFriends[]
Terminal "1" - -> TerminalStatus : - _terminalStatus
Terminal - -> Communications : -logCommunications[]

Terminal <|- - BasicTerminal
Terminal <|- - FancyTerminal

Receipt -> CommunicationType : - typeOfRecipt

Notifications -left> CommunicationType
Communications "1" - - -> CommunicationType :   - _communicationType

Network *->  NetworkManager
NetworkManager *-d-> Terminal : - _allTerminals[]
NetworkManager -> "*" Client : - _allClients[]
NetworkManager - Communications


@enduml

PlantUML version 1.2022.7(Mon Aug 22 18:01:30 WEST 2022)
(GPL source distribution)
Java Runtime: Java(TM) SE Runtime Environment
JVM: Java HotSpot(TM) 64-Bit Server VM
Default Encoding: UTF-8
Language: en
Country: PT
--></g></svg>